<?xml version="1.0" encoding="UTF-8"?>
<svg id="Layer_1" data-name="Layer 1" xmlns="http://www.w3.org/2000/svg" viewBox="0 0 180 180">
  <defs>
    <style>
      .cls-1 {
        fill: #cfa716;
      }

      .cls-1, .cls-2, .cls-3, .cls-4, .cls-5, .cls-6 {
        stroke-width: 0px;
      }

      .cls-2 {
        fill: #00b38a;
      }

      .cls-3 {
        fill: #00c6c3;
      }

      .cls-4 {
        fill: #27366f;
      }

      .cls-5 {
        fill: #c9587f;
      }

      .cls-6 {
        fill: #8c1d4b;
      }
    </style>
  </defs>
  <path class="cls-4" d="M161.39,46.3h0c1.19-.78,2.79-.42,3.54.8,9.21,15.05,13.34,32.92,11.63,50.61-.89,9.25-3.32,18.19-7.22,26.58-4.03,8.68-9.54,16.54-16.37,23.37-25.66,25.66-65.11,31.3-96.8,14.13-1.25-.68-1.7-2.26-.98-3.49h0c.68-1.17,2.17-1.59,3.37-.95,29.74,16.13,66.77,10.84,90.85-13.25,6.41-6.41,11.58-13.79,15.36-21.93,3.66-7.87,5.93-16.26,6.77-24.94,1.6-16.61-2.27-33.39-10.92-47.51-.71-1.16-.37-2.66.77-3.41Z"/>
  <path class="cls-2" d="M37.26,31.95c6.86-6.86,14.77-12.39,23.5-16.43,8.44-3.9,17.43-6.32,26.72-7.18,17.81-1.66,35.75,2.58,50.82,11.96,1.21.75,1.56,2.36.77,3.54h0c-.75,1.13-2.26,1.46-3.41.74-14.15-8.8-30.99-12.78-47.71-11.23-8.72.81-17.16,3.08-25.08,6.74-8.19,3.79-15.61,8.97-22.05,15.42-14.5,14.5-22.49,33.78-22.49,54.29,0,20.51,7.99,39.79,22.49,54.29,2.08,2.08,4.29,4.05,6.59,5.88,1.06.84,1.25,2.38.44,3.46h0c-.85,1.14-2.47,1.35-3.58.47-2.44-1.94-4.79-4.04-7.01-6.25-7.81-7.81-13.86-16.92-17.97-27.07-3.98-9.8-5.99-20.16-5.99-30.79,0-10.63,2.02-20.98,5.99-30.79,4.12-10.15,10.16-19.26,17.97-27.07Z"/>
  <path class="cls-3" d="M24.24,40.47c6.86-6.86,14.77-12.39,23.5-16.43,8.44-3.9,17.43-6.32,26.72-7.18,17.81-1.66,35.75,2.58,50.82,11.96,1.21.75,1.56,2.36.77,3.54h0c-.75,1.13-2.26,1.46-3.41.74-14.15-8.8-30.99-12.78-47.71-11.23-8.72.81-17.16,3.08-25.08,6.74-8.19,3.79-15.61,8.97-22.05,15.42-14.5,14.5-22.49,33.78-22.49,54.29,0,19.7,7.37,38.26,20.8,52.55.93.99.9,2.54-.06,3.5h0c-1.01,1.01-2.65.98-3.62-.06-6.94-7.38-12.37-15.85-16.16-25.2C2.3,119.3.28,108.95.28,98.32c0-10.63,2.02-20.98,5.99-30.79,4.12-10.15,10.16-19.26,17.97-27.07Z"/>
  <path class="cls-6" d="M71.8,157.93c.71-1.16,2.2-1.55,3.38-.88,14,7.92,30.42,11.27,46.51,9.45,8.45-.96,16.61-3.28,24.26-6.91,7.19-3.41,13.77-7.91,19.6-13.39.99-.93,2.54-.9,3.5.06h0c1.01,1.01.98,2.65-.06,3.62-6.21,5.83-13.22,10.62-20.88,14.26-8.15,3.87-16.85,6.35-25.85,7.37-17.14,1.94-34.63-1.63-49.54-10.06-1.24-.7-1.66-2.29-.92-3.51h0Z"/>
  <path class="cls-1" d="M153.95,130.66h0c1,1,2.64.98,3.61-.05,6-6.38,10.89-13.61,14.56-21.51,3.9-8.39,6.32-17.33,7.22-26.58,1.71-17.69-2.41-35.56-11.63-50.61-.74-1.22-2.35-1.58-3.54-.8h0c-1.13.74-1.47,2.25-.77,3.41,8.65,14.13,12.52,30.9,10.92,47.51-.84,8.68-3.12,17.07-6.77,24.94-3.44,7.42-8.04,14.2-13.67,20.19-.93.99-.9,2.54.06,3.49Z"/>
  <circle class="cls-5" cx="94.93" cy="90" r="31.53"/>
</svg>